<?xml version="1.0" encoding="UTF-8"?>
<svg id="Camada_1" data-name="Camada 1" xmlns="http://www.w3.org/2000/svg" viewBox="0 0 691 837">
  <defs>
    <style>
      .cls-1 {
        fill: #c96a3a;
        stroke-width: 0px;
      }
    </style>
  </defs>
  <g>
    <g>
      <circle class="cls-1" cx="305.77" cy="156.7" r="23.26"/>
      <circle class="cls-1" cx="230.61" cy="181.75" r="23.26"/>
      <circle class="cls-1" cx="345.14" cy="149.54" r="30.42"/>
      <circle class="cls-1" cx="266.4" cy="163.86" r="30.42"/>
      <circle class="cls-1" cx="155.46" cy="235.44" r="23.26"/>
      <circle class="cls-1" cx="133.98" cy="310.59" r="23.26"/>
      <circle class="cls-1" cx="191.25" cy="203.23" r="30.42"/>
      <circle class="cls-1" cx="137.63" cy="265.65" r="30.42"/>
    </g>
    <g>
      <circle class="cls-1" cx="384.55" cy="156.7" r="23.26"/>
      <circle class="cls-1" cx="459.71" cy="181.75" r="23.26"/>
      <circle class="cls-1" cx="345.18" cy="149.54" r="30.42"/>
      <circle class="cls-1" cx="423.92" cy="163.86" r="30.42"/>
      <circle class="cls-1" cx="534.86" cy="235.44" r="23.26"/>
      <circle class="cls-1" cx="556.34" cy="310.59" r="23.26"/>
      <circle class="cls-1" cx="499.07" cy="203.23" r="30.42"/>
      <circle class="cls-1" cx="552.69" cy="265.65" r="30.42"/>
    </g>
  </g>
  <path class="cls-1" d="M365.39,258.7s74.41-28.85,109.52-6.22c35.11,22.63,66,179.76,66,179.76l20.18-63.09-30.94-146.03s-87.13-35.62-102.12-41.36c-12.35-4.73-62.66-13.81-79.99-16.86.1-.66.16-1.03.16-1.03,0,0-1.1.19-3.04.53-1.94-.34-3.04-.53-3.04-.53,0,0,.06.37.16,1.03-17.33,3.05-67.64,12.13-79.99,16.86-14.99,5.74-102.12,41.36-102.12,41.36l-30.94,146.03,20.18,63.09s30.89-157.13,66-179.76c35.11-22.63,109.52,6.22,109.52,6.22"/>
  <g>
    <g>
      <circle class="cls-1" cx="222.2" cy="260.43" r="23.86"/>
      <circle class="cls-1" cx="288.27" cy="245.75" r="23.86"/>
      <circle class="cls-1" cx="174.49" cy="319.16" r="23.86"/>
      <circle class="cls-1" cx="194.67" cy="284.29" r="18.35"/>
      <circle class="cls-1" cx="253.4" cy="240.24" r="18.35"/>
      <circle class="cls-1" cx="323.14" cy="251.26" r="18.35"/>
      <circle class="cls-1" cx="165.31" cy="354.03" r="18.35"/>
      <circle class="cls-1" cx="161.64" cy="379.72" r="18.35"/>
      <circle class="cls-1" cx="157.97" cy="405.41" r="18.35"/>
      <circle class="cls-1" cx="150.63" cy="427.43" r="14.68"/>
    </g>
    <g>
      <circle class="cls-1" cx="468.12" cy="264.1" r="23.86"/>
      <circle class="cls-1" cx="402.05" cy="249.42" r="23.86"/>
      <circle class="cls-1" cx="515.83" cy="322.83" r="23.86"/>
      <circle class="cls-1" cx="495.65" cy="287.96" r="18.35"/>
      <circle class="cls-1" cx="436.92" cy="243.91" r="18.35"/>
      <circle class="cls-1" cx="367.18" cy="254.93" r="18.35"/>
      <circle class="cls-1" cx="525.01" cy="357.7" r="18.35"/>
      <circle class="cls-1" cx="528.68" cy="383.39" r="18.35"/>
      <circle class="cls-1" cx="532.35" cy="409.08" r="18.35"/>
      <circle class="cls-1" cx="539.69" cy="431.11" r="14.68"/>
    </g>
  </g>
</svg>