<?xml version="1.0" encoding="UTF-8"?>
<svg id="Camada_1" data-name="Camada 1" xmlns="http://www.w3.org/2000/svg" viewBox="0 0 691 837">
  <defs>
    <style>
      .cls-1 {
        fill: #ef41eb;
        stroke-width: 0px;
      }
    </style>
  </defs>
  <g>
    <g>
      <circle class="cls-1" cx="305.84" cy="156.7" r="23.26"/>
      <circle class="cls-1" cx="230.69" cy="181.75" r="23.26"/>
      <circle class="cls-1" cx="345.21" cy="149.54" r="30.42"/>
      <circle class="cls-1" cx="266.48" cy="163.86" r="30.42"/>
      <circle class="cls-1" cx="155.53" cy="235.44" r="23.26"/>
      <circle class="cls-1" cx="134.06" cy="310.59" r="23.26"/>
      <circle class="cls-1" cx="191.32" cy="203.23" r="30.42"/>
      <circle class="cls-1" cx="137.7" cy="265.65" r="30.42"/>
    </g>
    <g>
      <circle class="cls-1" cx="384.62" cy="156.7" r="23.26"/>
      <circle class="cls-1" cx="459.78" cy="181.75" r="23.26"/>
      <circle class="cls-1" cx="345.25" cy="149.54" r="30.42"/>
      <circle class="cls-1" cx="423.99" cy="163.86" r="30.42"/>
      <circle class="cls-1" cx="534.94" cy="235.44" r="23.26"/>
      <circle class="cls-1" cx="556.41" cy="310.59" r="23.26"/>
      <circle class="cls-1" cx="499.15" cy="203.23" r="30.42"/>
      <circle class="cls-1" cx="552.77" cy="265.65" r="30.42"/>
    </g>
  </g>
  <path class="cls-1" d="M365.47,258.7s74.41-28.85,109.52-6.22c35.11,22.63,66,179.76,66,179.76l20.18-63.09-30.94-146.03s-87.13-35.62-102.12-41.36c-12.35-4.73-62.66-13.81-79.99-16.86.1-.66.16-1.03.16-1.03,0,0-1.1.19-3.04.53-1.94-.34-3.04-.53-3.04-.53,0,0,.06.37.16,1.03-17.33,3.05-67.64,12.13-79.99,16.86-14.99,5.74-102.12,41.36-102.12,41.36l-30.94,146.03,20.18,63.09s30.89-157.13,66-179.76c35.11-22.63,109.52,6.22,109.52,6.22"/>
  <g>
    <g>
      <circle class="cls-1" cx="222.27" cy="260.43" r="23.86"/>
      <circle class="cls-1" cx="288.34" cy="245.75" r="23.86"/>
      <circle class="cls-1" cx="174.56" cy="319.16" r="23.86"/>
      <circle class="cls-1" cx="194.75" cy="284.29" r="18.35"/>
      <circle class="cls-1" cx="253.47" cy="240.24" r="18.35"/>
      <circle class="cls-1" cx="323.21" cy="251.26" r="18.35"/>
      <circle class="cls-1" cx="165.38" cy="354.03" r="18.35"/>
      <circle class="cls-1" cx="161.71" cy="379.72" r="18.35"/>
      <circle class="cls-1" cx="158.04" cy="405.41" r="18.35"/>
      <circle class="cls-1" cx="150.7" cy="427.43" r="14.68"/>
    </g>
    <g>
      <circle class="cls-1" cx="468.19" cy="264.1" r="23.86"/>
      <circle class="cls-1" cx="402.12" cy="249.42" r="23.86"/>
      <circle class="cls-1" cx="515.91" cy="322.83" r="23.86"/>
      <circle class="cls-1" cx="495.72" cy="287.96" r="18.35"/>
      <circle class="cls-1" cx="436.99" cy="243.91" r="18.35"/>
      <circle class="cls-1" cx="367.26" cy="254.93" r="18.35"/>
      <circle class="cls-1" cx="525.08" cy="357.7" r="18.35"/>
      <circle class="cls-1" cx="528.75" cy="383.39" r="18.35"/>
      <circle class="cls-1" cx="532.42" cy="409.08" r="18.35"/>
      <circle class="cls-1" cx="539.77" cy="431.11" r="14.68"/>
    </g>
  </g>
</svg>